<svg width="260" height="210" viewBox="0 0 260 210" fill="none" xmlns="http://www.w3.org/2000/svg">
<path d="M59 182H177V204C177 206.761 174.761 209 172 209H64C61.2386 209 59 206.761 59 204V182Z" fill="black"/>
<path d="M34.4974 110.5C54.4974 110.5 59.164 151.5 58.9974 172H177C177 142.8 187.5 120 208.5 120C233 120 241 133 246 128C253 121 230 71 192 70.5C169.602 70.2053 154.333 83.1667 149.5 89.5C146 86 137 80.5 137 66C137 51.5 146.752 44.2133 155 39.5C167 32.6429 179.062 42 182.5 36.5C186.439 30.1968 168 2 139 2C89 2 79.1646 55.3333 80.4969 82.5C75 77 66 67 46.4974 67C9.49888 67 0.50232 128 10.9998 128C18.9993 128 16.9969 110.5 34.4974 110.5Z" fill="black"/>
<circle cx="12" cy="141" r="11" fill="black"/>
<circle cx="247" cy="141" r="11" fill="black"/>
<circle cx="193" cy="44" r="11" fill="black"/>
</svg>
