<svg xmlns="http://www.w3.org/2000/svg" width="134" height="72" fill="none">
  <path fill="#fff" d="M83.59 5.56 85.3.11S69.68-1.93 62.5 11.28a6.17 6.17 0 0 0-2.05-1.71c-1.93-.64-4.17.24-4.17.24 2.53.28 4.81 5.03 4.81 5.03l2.83-.33s3.73-6.33 16.93-.26l1.9-6.05a14.2 14.2 0 0 0-3.71-.69c.07-1.07.27-1.92.42-2.41 1.87.01 3.32.27 4.13.46Zm-6.27-.37a7.85 7.85 0 0 0-.38 2.33c-1.2.08-2.37.27-3.5.54.07-.97.24-1.76.38-2.26 1.24-.32 2.42-.51 3.5-.61Zm-13.24 6.87v-1.03c.66-.57 1.32-1.08 1.98-1.55.04.46.12.91.2 1.3-1.36.73-2.18 1.28-2.18 1.28Zm4.15-2.22a11 11 0 0 1-.15-1.67c1.17-.67 2.32-1.2 3.43-1.63-.15.77-.18 1.6-.17 2.1-1.14.37-2.19.78-3.11 1.2ZM55.37 15.37c-.23-.17-.34-.48-.34-.93v-.46c0-.44.12-.75.36-.93.24-.17.62-.26 1.15-.26.56 0 .95.09 1.17.26.22.18.33.49.33.93v.46c0 .46-.11.78-.34.94-.23.17-.63.25-1.19.25-.54 0-.92-.08-1.14-.26ZM86.61 29.54c-.1-.1-.14-.24-.14-.42v-.16c0-.17.05-.31.14-.4.1-.1.24-.15.42-.15h.12c.18 0 .31.05.41.14.1.1.14.24.14.41v.16c0 .18-.04.32-.14.42-.1.1-.23.14-.41.14h-.12c-.18 0-.32-.05-.42-.14ZM92.94 24.88c.1.11.15.24.15.4v2.37c0 .66-.18 1.19-.55 1.57-.37.37-.9.56-1.57.56-.68 0-1.2-.19-1.57-.56-.37-.38-.55-.9-.55-1.57v-2.36c0-.17.05-.3.16-.4.1-.12.23-.17.4-.17.16 0 .29.05.4.16.1.11.15.24.15.4v2.37c0 .37.09.65.25.84.17.18.42.27.76.27s.6-.09.76-.27c.17-.19.25-.47.25-.84v-2.36c0-.17.05-.3.16-.4.1-.12.24-.17.4-.17.16 0 .3.05.4.16ZM98.61 29.13a.5.5 0 0 1-.18.4.58.58 0 0 1-.38.15.53.53 0 0 1-.41-.19l-1.67-1.76-.46.42v.97c0 .16-.05.3-.16.4-.1.12-.24.17-.4.17a.53.53 0 0 1-.4-.16.56.56 0 0 1-.15-.4v-5.75a.53.53 0 0 1 .56-.57.56.56 0 0 1 .56.57v3.44l1.98-1.92a.56.56 0 0 1 .4-.18.5.5 0 0 1 .38.17c.1.12.16.23.16.35 0 .15-.08.29-.23.42l-1.4 1.29 1.63 1.76a.6.6 0 0 1 .17.42ZM42.22 13.63c.27.25.4.59.4 1 0 .41-.13.75-.4 1a1.5 1.5 0 0 1-1.05.36H37.4v12.53c0 .42-.15.76-.45 1.04-.3.28-.68.42-1.13.42-.44 0-.81-.14-1.1-.42a1.39 1.39 0 0 1-.43-1.04V16h-3.75c-.43 0-.78-.12-1.05-.38-.27-.25-.4-.59-.4-1 0-.4.13-.73.4-.98.29-.26.63-.39 1.05-.39h10.62c.43 0 .78.13 1.05.39ZM52.75 17.36c.33.27.49.59.49.95 0 .5-.13.87-.38 1.11-.26.25-.56.37-.91.37-.24 0-.51-.05-.81-.16l-.33-.1a2.13 2.13 0 0 0-1.73.31c-.38.26-.7.64-.95 1.16a4.27 4.27 0 0 0-.37 1.86v5.66c0 .42-.13.76-.4 1.04s-.62.42-1.03.42c-.42 0-.76-.14-1.03-.42-.27-.28-.4-.62-.4-1.04v-9.87c0-.42.13-.76.4-1.04s.61-.42 1.03-.42c.41 0 .76.14 1.03.42.27.28.4.62.4 1.04v.3c.37-.65.9-1.14 1.58-1.49a4.85 4.85 0 0 1 2.2-.51c.48 0 .88.13 1.2.4ZM57.57 29.56c-.27.28-.62.42-1.03.42-.42 0-.76-.14-1.03-.42-.27-.28-.4-.62-.4-1.04v-9.87c0-.42.13-.76.4-1.04s.61-.42 1.03-.42c.41 0 .76.14 1.03.42.27.28.4.62.4 1.04v9.87c0 .42-.13.76-.4 1.04ZM69.69 26.44c.65-.76.98-1.72.98-2.87 0-1.15-.32-2.1-.97-2.85a3.16 3.16 0 0 0-2.52-1.14 3.2 3.2 0 0 0-2.54 1.14 4.22 4.22 0 0 0-.98 2.85c0 1.15.33 2.1.98 2.87.66.77 1.5 1.15 2.54 1.15 1.02 0 1.85-.38 2.5-1.15Zm.84-8.64c.89.56 1.6 1.35 2.11 2.35.52 1 .78 2.15.78 3.42 0 1.28-.26 2.42-.77 3.43a5.88 5.88 0 0 1-2.09 2.37 5.33 5.33 0 0 1-5.1.38 5.73 5.73 0 0 1-1.68-1.13v4.68c0 .42-.13.76-.4 1.04s-.62.42-1.03.42a1.4 1.4 0 0 1-1.44-1.46V18.65c0-.42.14-.76.41-1.04.27-.28.61-.42 1.03-.42.41 0 .76.14 1.03.42.27.28.4.62.4 1.04v.1c.39-.49.92-.9 1.6-1.26.69-.36 1.4-.54 2.16-.54 1.1 0 2.1.28 2.99.85ZM84.92 27.72c.25.25.38.56.38.95a1.3 1.3 0 0 1-1.34 1.32h-7.7c-.36-.01-.67-.14-.92-.4a1.22 1.22 0 0 1-.37-.85c0-.27.03-.5.1-.68.06-.19.18-.4.36-.64l5.69-7.36h-4.64a1.3 1.3 0 0 1-1.34-1.34c0-.37.13-.67.38-.92.26-.25.58-.37.96-.37h7.36c.35 0 .65.12.9.37s.37.55.37.92c0 .24-.02.44-.07.6-.05.18-.16.37-.34.6l-5.73 7.43h5c.37 0 .7.12.95.37ZM5.71 70.59c-.03.12-.08.25-.16.38a1.63 1.63 0 0 1-.75.68c-.17.08-.37.12-.58.12H.52a.5.5 0 0 1-.2-.04.45.45 0 0 1-.12-.1.32.32 0 0 1-.06-.16.37.37 0 0 1 .01-.2l1.19-4.39a.52.52 0 0 1 .09-.2.64.64 0 0 1 .32-.25.51.51 0 0 1 .21-.04h3.27a.95.95 0 0 1 .7.27c.09.09.16.21.2.36.04.15.03.34-.03.55l-.05.19a2.77 2.77 0 0 1-.67 1.12 1.07 1.07 0 0 1 .4.58c.04.12.07.26.06.42 0 .15-.02.33-.08.52l-.05.19Zm-.91-.19a.92.92 0 0 0 .03-.34.74.74 0 0 0-.1-.26.58.58 0 0 0-.22-.17.9.9 0 0 0-.33-.06h-2.2l.26-.98H4a1.1 1.1 0 0 0 .68-.22 1.22 1.22 0 0 0 .38-.61l.05-.19c.04-.14-.01-.2-.14-.2H2.19l-.93 3.42H4.54l.08-.02.07-.07a.34.34 0 0 0 .06-.12l.05-.18ZM12.25 68.2a2.3 2.3 0 0 1-1.01 1.4 2.76 2.76 0 0 1-.88.37c-.15.03-.28.04-.4.04l1.56 1.76h-1.51l-1.56-1.76h-.7l.26-.98h2.21a1.3 1.3 0 0 0 .66-.24c.1-.07.17-.16.25-.26.06-.1.1-.2.14-.33l.17-.62c.01-.05.03-.1.02-.12-.01-.03-.02-.06-.04-.07l-.06-.02H8.08l-1.2 4.4h-.97l1.32-4.89a.52.52 0 0 1 .09-.2.64.64 0 0 1 .53-.3h3.71c.22 0 .39.05.52.12a.7.7 0 0 1 .28.3c.07.12.1.25.1.39s0 .26-.04.38l-.17.63ZM14.37 66.39h-.98l-1.45 5.38h.98l1.45-5.38ZM19.78 67.37h-2.16l-1.19 4.4h-.97l1.19-4.4h-2.16l.27-.98h5.28l-.26.98ZM21.4 66.39h-.98l-1.45 5.38h.98l1.45-5.38ZM26.35 70.19a2.25 2.25 0 0 1-.52.93 2.25 2.25 0 0 1-1.13.61c-.12.03-.24.04-.35.04h-3.76l.26-.98h3.76c.2 0 .35-.05.48-.16a.85.85 0 0 0 .29-.44c.02-.1.03-.18.02-.25a.35.35 0 0 0-.07-.2.38.38 0 0 0-.15-.12.52.52 0 0 0-.24-.05H22.7c-.16 0-.32-.03-.49-.08a1.08 1.08 0 0 1-.7-.76 2.16 2.16 0 0 1 .93-1.98 2.02 2.02 0 0 1 1.12-.36h3.32l-.26.98H23.3a.71.71 0 0 0-.47.16.87.87 0 0 0-.28.45c-.05.19-.04.34.04.45.07.1.2.16.38.16h2.25c.11 0 .22.01.33.04.11.03.21.07.32.12.1.06.2.13.28.21.07.08.15.19.2.3a1.7 1.7 0 0 1 .02.92ZM28.24 68.59h3.42l.6-2.2h.97l-1.45 5.38h-.98l.6-2.2h-3.43l-.59 2.2h-.98l1.46-5.38h.97l-.6 2.2Z"/>
  <path fill="#FFED00" stroke="#fff" stroke-linejoin="round" stroke-miterlimit="2" stroke-width=".17" d="M38.19 70.19a2.11 2.11 0 0 1-2 1.58h-3.77l.27-.97h3.76c.19 0 .35-.06.48-.17a.84.84 0 0 0 .3-.7.42.42 0 0 0-.06-.19.36.36 0 0 0-.15-.12.56.56 0 0 0-.24-.05h-2.24c-.16 0-.32-.03-.5-.08a1.03 1.03 0 0 1-.7-.76c-.03-.21-.02-.46.06-.75a2.05 2.05 0 0 1 .88-1.23 2.09 2.09 0 0 1 1.12-.36h3.32l-.26.97h-3.33a.72.72 0 0 0-.48.17.86.86 0 0 0-.27.45c-.05.19-.04.34.03.44.08.11.2.17.4.17h2.25a1.57 1.57 0 0 1 .64.16c.1.06.19.13.27.21.08.09.15.19.2.3.05.12.08.26.08.4.01.16-.01.33-.06.53ZM43.64 71.28a.69.69 0 0 1-.62.5h-2.2c-.21 0-.42-.03-.62-.08a1.82 1.82 0 0 1-1.03-.57 1.6 1.6 0 0 1-.32-.5c-.07-.2-.12-.44-.12-.7 0-.25.03-.54.12-.85l.72-2.7h.98l-.73 2.7c-.07.27-.1.5-.07.7.03.19.08.35.16.47.09.13.19.23.3.3a1.58 1.58 0 0 0 .68.23l.19.02h1.71l1.2-4.41h.97l-1.32 4.89ZM50.51 68.64a2.44 2.44 0 0 1-2.3 1.81h-2.2l.26-.98h2.21a1.16 1.16 0 0 0 .9-.5c.07-.1.12-.2.15-.33l.12-.44c.02-.13.03-.24.02-.34a.58.58 0 0 0-.1-.26.5.5 0 0 0-.2-.17.74.74 0 0 0-.32-.07h-2.2a.5.5 0 0 0-.32.1.54.54 0 0 0-.19.3l-1.08 4.01h-.97l1.08-4.01a1.75 1.75 0 0 1 .76-1.06 1.85 1.85 0 0 1 .98-.31h2.2c.22 0 .41.03.57.08.16.06.3.13.4.23.11.1.2.2.26.32a1.48 1.48 0 0 1 .15.8 2 2 0 0 1-.06.38l-.12.44ZM55.18 69.57H52.1l.26-.98h3.09l-.27.98Zm-.15 2.2H51.5c-.13 0-.27-.02-.42-.07a.92.92 0 0 1-.38-.23.91.91 0 0 1-.23-.43c-.04-.17-.03-.39.04-.64l.95-3.52a.62.62 0 0 1 .09-.2.74.74 0 0 1 .14-.15.66.66 0 0 1 .19-.1.58.58 0 0 1 .2-.04h4.4l-.26.97H52.3l-.82 3.04c-.03.13-.02.23.03.3.05.06.14.1.27.1h3.51l-.26.97ZM61.97 68.2a2.44 2.44 0 0 1-2.3 1.81l1.57 1.76h-1.5l-1.57-1.76h-.7l.27-.98h2.2a1.34 1.34 0 0 0 .67-.24 1.06 1.06 0 0 0 .39-.6l.16-.6a.3.3 0 0 0 .02-.13.1.1 0 0 0-.04-.07.12.12 0 0 0-.06-.02H57.8l-1.2 4.4h-.97l1.32-4.89a.73.73 0 0 1 .42-.45.58.58 0 0 1 .2-.04h3.71a1 1 0 0 1 .52.12c.13.07.22.17.29.3.06.11.1.24.1.38 0 .13-.01.26-.05.38l-.17.63ZM67.92 71.77h-.99l.87-3.2-2.55 3.04a.63.63 0 0 1-.5.24.4.4 0 0 1-.21-.06.3.3 0 0 1-.13-.18l-.92-3.04-.86 3.2h-.98L63 66.8c.03-.1.1-.2.18-.3.1-.08.2-.14.31-.17l.16-.02c.05 0 .1.02.15.04.04.02.08.04.1.08.04.03.06.07.08.12l1.18 3.86 3.26-3.86a.7.7 0 0 1 .3-.2.53.53 0 0 1 .32-.02c.1.03.16.09.2.17.05.1.06.2.03.3l-1.34 4.97ZM74.95 69.6a2.98 2.98 0 0 1-1.07 1.61c-.26.2-.54.36-.84.47-.3.11-.62.17-.94.17h-1.32c-.33 0-.61-.06-.86-.17a1.46 1.46 0 0 1-.86-1.18c-.04-.28-.02-.58.07-.9l.28-1.03a2.96 2.96 0 0 1 1.08-1.62c.25-.2.53-.36.84-.47.3-.11.62-.17.94-.17h1.32a2 2 0 0 1 .85.17c.25.11.44.27.59.47.14.2.24.44.27.71.04.28.02.58-.07.9l-.28 1.03Zm-.7-1.03c.05-.2.07-.37.05-.53a.84.84 0 0 0-.15-.4.8.8 0 0 0-.33-.26c-.14-.06-.3-.1-.5-.1h-1.31a1.62 1.62 0 0 0-1.02.36 1.69 1.69 0 0 0-.6.93l-.28 1.02c-.05.2-.07.37-.05.53.02.15.07.29.15.4.08.11.2.2.33.26.14.06.31.09.5.09h1.31a1.62 1.62 0 0 0 1.02-.35 1.68 1.68 0 0 0 .6-.93l.28-1.02ZM80.97 67.36h-2.15l-1.2 4.41h-.97l1.2-4.4h-2.16l.26-.98h5.28l-.26.97ZM86.32 69.6a2.98 2.98 0 0 1-1.07 1.61c-.26.2-.54.36-.84.47-.3.11-.62.17-.94.17h-1.32c-.33 0-.6-.06-.85-.17a1.46 1.46 0 0 1-.87-1.18c-.04-.28-.02-.58.07-.9l.28-1.03a2.96 2.96 0 0 1 1.08-1.62c.25-.2.53-.36.84-.47.3-.11.62-.17.94-.17h1.32a2 2 0 0 1 .85.17c.25.11.44.27.59.47.14.2.24.44.27.71.04.28.02.58-.07.9l-.28 1.03Zm-.7-1.03c.06-.2.07-.37.05-.53a.84.84 0 0 0-.15-.4.8.8 0 0 0-.33-.26c-.14-.06-.3-.1-.5-.1h-1.31a1.62 1.62 0 0 0-1.02.36 1.69 1.69 0 0 0-.6.93l-.28 1.02c-.05.2-.07.37-.05.53.02.15.07.29.15.4.08.11.2.2.34.26s.3.09.5.09h1.3a1.62 1.62 0 0 0 1.02-.35 1.68 1.68 0 0 0 .6-.93l.28-1.02Z"/>
  <path fill="#fff" d="M29.14 57.57a6.8 6.8 0 0 1-.8 1.84 7.78 7.78 0 0 1-3.6 3.28c-.8.37-1.73.55-2.76.55H4.24c-.33 0-.65-.07-.91-.18-.23-.11-.44-.3-.6-.48a1.54 1.54 0 0 1-.28-.77c-.08-.26-.02-.6.07-.92L8.2 39.83c.09-.33.2-.62.43-.92a3.08 3.08 0 0 1 2.56-1.43h15.64a4.52 4.52 0 0 1 3.33 1.29c.44.44.76 1.03.94 1.72.2.74.15 1.62-.13 2.65l-.24.89c-.21.8-.6 1.73-1.13 2.69a13.3 13.3 0 0 1-2.08 2.68 5.1 5.1 0 0 1 1.98 2.76c.17.6.28 1.25.26 2.03.02.73-.13 1.58-.38 2.5l-.24.88Zm-4.4-.88c.17-.63.2-1.18.15-1.66-.09-.47-.24-.88-.47-1.25a2.8 2.8 0 0 0-1.03-.8 4.3 4.3 0 0 0-1.59-.26H11.24L12.5 48h8.43c.62 0 1.2-.1 1.73-.3a5.29 5.29 0 0 0 1.5-.76 5.82 5.82 0 0 0 1.85-2.91l.24-.89c.18-.66-.06-.99-.69-.99H12.25L7.82 58.57h15.72l.36-.11c.09-.08.23-.19.34-.33.12-.15.2-.34.27-.6l.23-.84ZM56.9 55.66a10.75 10.75 0 0 1-2.5 4.45 10.8 10.8 0 0 1-3.58 2.4c-.62.25-1.23.44-1.84.55-.59.1-1.16.18-1.67.18h-18l1.26-4.67h18c.92 0 1.69-.26 2.3-.78a4.06 4.06 0 0 0 1.35-2.13c.12-.44.16-.85.1-1.18a1.7 1.7 0 0 0-.3-.95 1.81 1.81 0 0 0-.75-.6c-.3-.14-.68-.21-1.12-.21H39.4c-.74 0-1.5-.15-2.32-.41a5.14 5.14 0 0 1-3.32-3.64c-.21-1-.15-2.18.22-3.57.38-1.4.96-2.58 1.7-3.57.78-.96 1.61-1.73 2.52-2.36a9.67 9.67 0 0 1 2.77-1.29c.97-.3 1.8-.4 2.54-.4h15.94l-1.26 4.67H42.25a3.4 3.4 0 0 0-2.28.81 4.15 4.15 0 0 0-1.31 2.14c-.24.88-.18 1.62.16 2.13.37.52.97.77 1.85.77h10.79c.51 0 1.04.08 1.56.22.52.11 1.02.3 1.54.56.47.3.9.62 1.3 1.03a5 5 0 0 1 1.33 3.39c.04.7-.04 1.54-.3 2.46ZM87.1 63.24h-4.7l4.14-15.35-12.22 14.58a3.2 3.2 0 0 1-2.37 1.14c-.4 0-.74-.11-1.06-.3-.28-.18-.5-.47-.58-.84l-4.38-14.58-4.15 15.35h-4.67l6.42-23.78c.15-.55.42-1.03.86-1.43.4-.4.93-.7 1.48-.85.24-.07.5-.07.76-.07.25.04.5.07.69.18.2.08.38.22.52.37.15.15.27.37.32.59l5.65 18.48 15.66-18.48c.39-.48.84-.77 1.41-1a2.43 2.43 0 0 1 1.53-.07c.44.15.8.44.99.85.22.4.27.88.13 1.43L87.1 63.24ZM109.95 37.19h-9.69c-1.06 0-1.98.7-2.25 1.73l-2.62 9.75h11.48l3.08-11.48ZM118.36 48.67h9.68c1.06 0 1.99-.71 2.26-1.73l2.61-9.75h-9.69c-1.05 0-1.98.7-2.25 1.73l-2.61 9.75ZM115.74 58.42l2.62-9.75h-11.48l-3.08 11.48h9.69c1.06 0 1.98-.71 2.25-1.73ZM101.19 69.9l2.6-9.75h-9.68c-1.06 0-1.98.71-2.26 1.73l-2.6 9.75h9.68c1.06 0 1.98-.7 2.25-1.73Z"/>
</svg>