<svg width="182" height="48" fill="none" xmlns="http://www.w3.org/2000/svg">
  <path d="M7.97 46.11c-.04.17-.11.35-.22.53a2.22 2.22 0 0 1-1.03.94c-.23.1-.5.15-.8.15H.86a.68.68 0 0 1-.26-.05.62.62 0 0 1-.17-.13.44.44 0 0 1-.08-.23.51.51 0 0 1 .02-.26l1.62-6.03c.02-.1.06-.18.12-.26a.88.88 0 0 1 .73-.42H7.3c.16 0 .33.04.5.09.18.06.32.16.46.28.12.13.21.3.26.5.06.21.05.46-.03.76l-.07.25c-.06.23-.17.5-.32.77a3.8 3.8 0 0 1-.6.77 1.47 1.47 0 0 1 .57.8c.05.16.08.35.08.57 0 .21-.04.45-.11.72l-.07.25Zm-1.26-.25c.05-.18.06-.34.05-.48a1.01 1.01 0 0 0-.14-.35.8.8 0 0 0-.3-.24 1.23 1.23 0 0 0-.45-.07H2.85l.36-1.35h2.41a1.5 1.5 0 0 0 .92-.3 1.66 1.66 0 0 0 .53-.84l.07-.25c.05-.2-.02-.29-.2-.29h-3.8l-1.26 4.7h4.49l.1-.03a.47.47 0 0 0 .18-.26l.06-.24ZM16.9 42.83a3.15 3.15 0 0 1-1.38 1.93 3.76 3.76 0 0 1-1.2.5c-.2.04-.39.06-.55.06l2.14 2.41h-2.07l-2.13-2.41h-.97l.36-1.34h3.03a1.78 1.78 0 0 0 .9-.34c.13-.1.24-.2.34-.34.09-.14.15-.29.2-.47l.22-.84c.02-.08.04-.14.03-.17l-.05-.1-.09-.03H11.2l-1.62 6.04H8.23l1.8-6.7c.03-.1.06-.18.12-.26a.88.88 0 0 1 .73-.42h5.08c.29 0 .53.06.7.16.18.1.31.25.4.41a1.59 1.59 0 0 1 .08 1.05l-.24.86ZM19.8 40.35h-1.34l-1.98 7.38h1.33l1.99-7.38ZM27.19 41.7h-2.95l-1.62 6.03H21.3l1.61-6.04h-2.94l.36-1.34h7.23l-.36 1.34ZM29.4 40.35h-1.33l-1.98 7.38h1.33l1.99-7.38ZM36.18 45.56a3.08 3.08 0 0 1-.7 1.28 3.08 3.08 0 0 1-1.56.84c-.17.03-.33.05-.48.05H28.3l.36-1.33h5.14a1 1 0 0 0 .66-.23c.2-.15.32-.35.39-.6a.8.8 0 0 0 .02-.34c0-.11-.03-.2-.08-.28a.52.52 0 0 0-.22-.17.72.72 0 0 0-.32-.06h-3.07a2.2 2.2 0 0 1-.66-.12 1.48 1.48 0 0 1-.95-1.04 2.96 2.96 0 0 1 1.27-2.72 2.76 2.76 0 0 1 1.5-.49h4.56l-.35 1.34h-4.56a.97.97 0 0 0-.65.24c-.18.14-.3.35-.38.6-.06.26-.05.47.05.62.1.15.28.22.53.22h3.08c.15 0 .3.02.45.06.15.03.3.09.44.16.14.09.26.18.37.3.11.1.21.25.27.4.08.17.11.36.12.57 0 .2-.02.44-.09.7ZM38.75 43.37h4.69l.8-3.02h1.34l-1.98 7.38h-1.33l.8-3.01H38.4l-.8 3.01h-1.34l1.97-7.38h1.34l-.8 3.02ZM52.36 45.56a3.08 3.08 0 0 1-.7 1.28 3.08 3.08 0 0 1-1.56.84c-.17.03-.33.05-.48.05h-5.14l.36-1.33h5.14a1 1 0 0 0 .66-.23c.2-.15.32-.35.39-.6a.8.8 0 0 0 .02-.34c0-.11-.03-.2-.08-.28a.52.52 0 0 0-.22-.17.72.72 0 0 0-.32-.06h-3.07a2.2 2.2 0 0 1-.66-.12 1.48 1.48 0 0 1-.95-1.04 2.96 2.96 0 0 1 1.27-2.72 2.76 2.76 0 0 1 1.5-.49h4.56l-.35 1.34h-4.56a.97.97 0 0 0-.65.24c-.18.14-.3.35-.38.6-.06.26-.05.47.05.62.1.15.28.22.53.22h3.08c.15 0 .3.02.45.06.15.03.3.09.44.16.14.09.26.18.37.3.11.1.21.25.27.4.08.17.11.36.12.57 0 .2-.02.44-.09.7ZM59.82 47.06a.93.93 0 0 1-.85.67h-3.02a3.67 3.67 0 0 1-1.61-.37c-.24-.13-.45-.3-.64-.5a2.54 2.54 0 0 1-.61-1.64c-.01-.35.05-.74.17-1.18l.99-3.69h1.33l-.98 3.7c-.1.37-.15.7-.11.95.03.26.11.48.22.66.12.17.25.3.43.4.16.1.32.18.48.23.16.04.3.07.43.08l.26.03h2.35l1.62-6.05h1.33l-1.8 6.71ZM69.2 43.44a3.3 3.3 0 0 1-.8 1.46 3.52 3.52 0 0 1-2.33 1.02h-3.02l.36-1.34h3.02c.17 0 .34-.04.5-.1a1.48 1.48 0 0 0 .95-1.03l.16-.62c.02-.17.02-.31 0-.46a.76.76 0 0 0-.12-.36.73.73 0 0 0-.27-.23.95.95 0 0 0-.44-.09h-3.02a.68.68 0 0 0-.44.14c-.12.1-.2.22-.24.4l-1.48 5.5h-1.34l1.48-5.5c.1-.35.23-.63.42-.87.18-.25.4-.44.62-.58a2.48 2.48 0 0 1 1.33-.42h3.02c.3 0 .56.03.78.11a1.59 1.59 0 0 1 .9.75 2.25 2.25 0 0 1 .12 1.61l-.16.61ZM75.58 44.72h-4.2l.36-1.35h4.2l-.36 1.35Zm-.2 3.01h-4.81c-.2 0-.38-.03-.59-.09-.2-.06-.37-.18-.52-.33a1.2 1.2 0 0 1-.3-.58c-.07-.24-.06-.52.04-.87l1.3-4.83c.02-.1.05-.18.11-.26a.88.88 0 0 1 .74-.42h6.02L77 41.7h-5.36l-1.12 4.17c-.04.17-.04.3.03.4.07.1.2.14.38.14h4.8l-.35 1.33ZM84.87 42.83a3.15 3.15 0 0 1-1.38 1.93 3.77 3.77 0 0 1-1.2.5c-.2.04-.39.06-.55.06l2.14 2.41h-2.07l-2.13-2.41h-.97l.36-1.34h3.03a1.78 1.78 0 0 0 .9-.34c.13-.1.24-.2.34-.34.09-.14.15-.29.2-.47l.22-.84c.02-.08.04-.14.02-.17 0-.04-.02-.07-.04-.1l-.09-.03h-4.49l-1.62 6.04H76.2l1.8-6.7c.02-.1.06-.18.12-.26a.88.88 0 0 1 .73-.42h5.08c.29 0 .53.06.7.16.18.1.31.25.4.41a1.59 1.59 0 0 1 .08 1.05l-.24.86ZM93 47.73h-1.34l1.18-4.4-3.49 4.18a.92.92 0 0 1-.67.33.59.59 0 0 1-.3-.08.4.4 0 0 1-.17-.25l-1.26-4.17-1.18 4.4h-1.34l1.83-6.82c.04-.15.12-.3.25-.4.11-.12.26-.2.42-.25.07-.02.14-.02.21-.02a.56.56 0 0 1 .35.16c.04.04.08.1.1.17l1.62 5.29 4.46-5.3a.9.9 0 0 1 .4-.28.7.7 0 0 1 .44-.02c.13.04.23.13.29.24.06.12.08.26.03.41l-1.82 6.81ZM102.62 44.75a4.2 4.2 0 0 1-3.9 3.09h-1.8c-.45 0-.84-.07-1.18-.23-.34-.15-.6-.37-.8-.64-.2-.28-.33-.6-.38-.99a3 3 0 0 1 .1-1.23l.37-1.41a4.4 4.4 0 0 1 2.62-2.86c.42-.16.85-.23 1.3-.23h1.8c.45 0 .83.07 1.16.23.34.16.6.37.8.64.2.28.33.6.39.98.04.38.02.8-.1 1.24l-.38 1.41Zm-.96-1.41c.07-.27.1-.5.07-.72a1.2 1.2 0 0 0-.21-.55c-.1-.16-.27-.27-.45-.36-.2-.08-.42-.12-.67-.12h-1.81a2.2 2.2 0 0 0-1.4.48 2.42 2.42 0 0 0-.82 1.27l-.38 1.41c-.07.26-.1.5-.06.72a1.1 1.1 0 0 0 .66.9c.19.09.42.13.68.13h1.8a2.18 2.18 0 0 0 1.4-.48 2.43 2.43 0 0 0 .81-1.27l.38-1.41ZM110.84 41.7h-2.94l-1.62 6.03h-1.34l1.62-6.04h-2.94l.35-1.34h7.23l-.36 1.34ZM118.16 44.75a4.17 4.17 0 0 1-1.46 2.22 4.02 4.02 0 0 1-2.44.87h-1.8c-.45 0-.84-.07-1.17-.23-.34-.15-.61-.37-.81-.64-.2-.28-.32-.6-.38-.99-.06-.36-.02-.79.1-1.23l.38-1.41a4.4 4.4 0 0 1 2.62-2.86c.42-.16.85-.23 1.29-.23h1.8c.45 0 .83.07 1.17.23.33.16.6.37.8.64.2.28.33.6.38.98.05.38.02.8-.1 1.24l-.38 1.41Zm-.95-1.41c.07-.27.09-.5.06-.72a1.2 1.2 0 0 0-.2-.55c-.11-.16-.27-.27-.46-.36-.2-.08-.42-.12-.67-.12h-1.81a2.2 2.2 0 0 0-1.4.48 2.42 2.42 0 0 0-.82 1.27l-.37 1.41c-.08.26-.1.5-.07.72.03.2.1.4.21.55.1.15.26.27.45.35.19.09.42.13.68.13h1.8a2.18 2.18 0 0 0 1.4-.48 2.43 2.43 0 0 0 .82-1.27l.38-1.41ZM39.7 27.95c-.22.8-.54 1.65-1.07 2.5a10.51 10.51 0 0 1-4.88 4.44c-1.08.5-2.34.75-3.74.75H5.99c-.45 0-.87-.1-1.23-.25-.31-.15-.6-.4-.83-.65a2.1 2.1 0 0 1-.36-1.05c-.1-.35-.04-.8.08-1.24l7.66-28.57c.12-.45.28-.85.58-1.25A4.17 4.17 0 0 1 15.35.68h21.19c.74 0 1.55.15 2.38.4.82.3 1.5.75 2.13 1.35.59.6 1.02 1.4 1.27 2.35.28 1 .2 2.2-.17 3.6l-.32 1.2c-.3 1.1-.83 2.34-1.52 3.64a18 18 0 0 1-2.83 3.64 6.94 6.94 0 0 1 2.69 3.75c.23.8.4 1.7.36 2.75.03 1-.18 2.14-.51 3.4l-.32 1.2Zm-5.96-1.2a6 6 0 0 0 .2-2.24 4.8 4.8 0 0 0-.64-1.7 3.8 3.8 0 0 0-1.4-1.1 5.83 5.83 0 0 0-2.15-.35h-14.3l1.7-6.4h11.42a7.1 7.1 0 0 0 2.35-.4c.77-.24 1.41-.6 2.03-1.04a7.88 7.88 0 0 0 2.5-3.95l.32-1.2c.24-.9-.09-1.34-.93-1.34H16.79L10.83 29.3H32.1l.49-.15c.12-.1.31-.25.47-.45.15-.2.27-.45.36-.8l.3-1.15ZM77.24 25.35a14.57 14.57 0 0 1-3.36 6.05c-.75.75-1.53 1.4-2.37 1.94-.83.5-1.65.95-2.5 1.3-.83.35-1.65.6-2.48.75-.8.15-1.57.25-2.26.25H39.89l1.7-6.34h24.37a4.7 4.7 0 0 0 3.13-1.05 5.5 5.5 0 0 0 1.82-2.9c.16-.6.2-1.14.13-1.6a2.3 2.3 0 0 0-.4-1.3c-.26-.34-.59-.6-1.03-.8-.4-.2-.92-.3-1.52-.3H53.54c-1 0-2.04-.2-3.14-.54a7 7 0 0 1-4.5-4.94 10.4 10.4 0 0 1 .3-4.85c.5-1.9 1.28-3.5 2.29-4.84a16.2 16.2 0 0 1 3.4-3.2c1.2-.8 2.46-1.4 3.75-1.75 1.3-.4 2.44-.55 3.44-.55h21.58l-1.7 6.35H57.38c-1.2 0-2.19.34-3.09 1.1-.83.7-1.45 1.7-1.77 2.9-.32 1.19-.24 2.19.22 2.89.51.7 1.32 1.05 2.51 1.05h14.6c.7 0 1.42.1 2.12.3.7.15 1.39.4 2.09.74.64.4 1.22.85 1.77 1.4a6.82 6.82 0 0 1 1.8 4.6c.05.95-.06 2.1-.39 3.34ZM118.11 35.64h-6.38l5.58-20.82-16.5 19.77a4.33 4.33 0 0 1-3.21 1.55c-.55 0-1-.15-1.44-.4a1.86 1.86 0 0 1-.79-1.15l-5.96-19.77-5.58 20.82H77.5l8.64-32.26c.2-.75.57-1.4 1.17-1.95a4.46 4.46 0 0 1 2-1.15c.33-.1.68-.1 1.03-.1.33.05.67.1.93.25.27.1.51.3.71.5.2.2.36.5.43.8l7.69 25.07 21.17-25.07a4.28 4.28 0 0 1 1.9-1.35c.72-.25 1.38-.3 2.08-.1.59.2 1.08.6 1.33 1.15.3.55.38 1.2.18 1.95l-8.65 32.26ZM150.46.3h-13.25a3.2 3.2 0 0 0-3.08 2.38l-3.57 13.37h15.7l4.2-15.74ZM161.95 16.05h13.25a3.2 3.2 0 0 0 3.08-2.37L181.86.3H168.6a3.2 3.2 0 0 0-3.09 2.37l-3.57 13.37ZM158.38 29.42l3.57-13.37h-15.7l-4.2 15.75h13.25a3.2 3.2 0 0 0 3.08-2.38ZM138.48 45.17l3.57-13.37H128.8a3.2 3.2 0 0 0-3.08 2.37l-3.57 13.37h13.25a3.2 3.2 0 0 0 3.08-2.37Z" fill="#fff"/>
</svg>