<svg xmlns="http://www.w3.org/2000/svg" width="1715" height="169" fill="none">
  <g clip-path="url(#a)">
    <path fill="#fff" d="M569.24 130.5c-1 3.73-2.54 7.69-5 11.65a47.23 47.23 0 0 1-9.21 11.65c-3.8 3.73-8.28 6.52-13.64 9.09-5.05 2.33-10.96 3.5-17.48 3.5H411.6c-2.1 0-4.08-.47-5.75-1.17a13.67 13.67 0 0 1-3.85-3.03 9.77 9.77 0 0 1-1.7-4.9c-.5-1.63-.16-3.72.4-5.82L436.7 18.19c.56-2.1 1.3-3.96 2.73-5.82 1.2-1.87 2.58-3.5 4.35-4.9a20.7 20.7 0 0 1 5.48-3.02 15.48 15.48 0 0 1 6.37-1.17h99.03c3.5 0 7.26.7 11.14 1.87a28.6 28.6 0 0 1 9.96 6.29 23.95 23.95 0 0 1 5.9 10.95c1.3 4.66.96 10.25-.8 16.77l-1.51 5.6c-1.39 5.12-3.9 10.95-7.16 17a84.2 84.2 0 0 1-13.21 17.01 32.34 32.34 0 0 1 7.54 7.46 34.45 34.45 0 0 1 4.99 10.02 40.32 40.32 0 0 1 1.66 12.81c.14 4.66-.84 10.02-2.41 15.85l-1.51 5.59Zm-27.85-5.6a27.97 27.97 0 0 0 .97-10.48 22.36 22.36 0 0 0-2.99-7.92 17.67 17.67 0 0 0-6.54-5.13c-2.95-1.16-6.32-1.63-10.04-1.63h-66.87l8.04-29.82h53.36c3.96 0 7.65-.7 10.99-1.86a33.46 33.46 0 0 0 9.48-4.9 36.42 36.42 0 0 0 11.73-18.4l1.5-5.6c1.13-4.19-.4-6.29-4.36-6.29h-84.35L434.27 136.8H533.76l2.28-.7c.6-.47 1.48-1.16 2.2-2.1.72-.93 1.26-2.1 1.7-3.72l1.45-5.36ZM744.95 118.38a68.01 68.01 0 0 1-6.6 15.85 71.72 71.72 0 0 1-9.17 12.35 68.26 68.26 0 0 1-11.07 9.08 89.75 89.75 0 0 1-11.65 6.06 55.8 55.8 0 0 1-11.66 3.5c-3.69.7-7.3 1.16-10.57 1.16H570.29l7.99-29.59h113.94c5.82 0 10.69-1.63 14.6-4.9a25.7 25.7 0 0 0 8.54-13.5c.75-2.8.98-5.37.61-7.46a10.7 10.7 0 0 0-1.86-6.06 11.49 11.49 0 0 0-4.82-3.73c-1.84-.93-4.28-1.4-7.07-1.4h-68.04c-4.66 0-9.53-.93-14.69-2.56a29.33 29.33 0 0 1-13.11-8.39c-3.65-3.73-6.3-8.62-7.92-14.68-1.33-6.29-.95-13.74 1.44-22.6 2.39-8.85 6.03-16.3 10.76-22.6A75.84 75.84 0 0 1 626.56 14a61.23 61.23 0 0 1 17.59-8.16 54.63 54.63 0 0 1 16.07-2.56H761.1l-7.98 29.6h-100.9c-5.58 0-10.22 1.62-14.42 5.12-3.91 3.26-6.8 7.92-8.31 13.51-1.51 5.6-1.14 10.25 1.01 13.52 2.38 3.26 6.14 4.89 11.73 4.89h68.27a36 36 0 0 1 9.87 1.4c3.3.7 6.49 1.86 9.78 3.5 2.99 1.86 5.69 3.95 8.25 6.52 2.4 2.33 4.55 5.59 5.94 9.08 1.62 3.5 2.35 7.7 2.5 12.35.2 4.43-.32 9.79-1.9 15.61ZM936.18 166.38h-29.83l26.23-97.16-77.33 92.27a20.28 20.28 0 0 1-7.04 5.36 18.45 18.45 0 0 1-7.96 1.86 13 13 0 0 1-6.72-1.86 8.66 8.66 0 0 1-3.68-5.36L802.1 69.22l-26.23 97.16h-29.59l40.63-150.52a18.6 18.6 0 0 1 5.48-9.08 20.89 20.89 0 0 1 9.37-5.36c1.52-.47 3.15-.47 4.78-.47 1.57.23 3.14.47 4.35 1.17a9.49 9.49 0 0 1 3.33 2.33c.91.93 1.7 2.33 2.02 3.72l35.77 116.97L951.15 8.17a20.05 20.05 0 0 1 8.92-6.29c3.34-1.16 6.44-1.4 9.68-.46A10.3 10.3 0 0 1 976 6.78c1.4 2.56 1.76 5.59.81 9.08l-40.62 150.52Z"/>
    <path fill="#fff" stroke="#fff" stroke-linejoin="round" stroke-miterlimit="2" stroke-width="2.32" d="M1060.87 60.66a22.79 22.79 0 0 1-2.29 5.33 22.88 22.88 0 0 1-10.36 9.34 19.09 19.09 0 0 1-8.05 1.64h-51.09c-.96 0-1.81-.18-2.55-.52a4.5 4.5 0 0 1-2.6-3.57 6.6 6.6 0 0 1 .2-2.7l16.38-60.65a9.73 9.73 0 0 1 5.77-6.26 8.08 8.08 0 0 1 2.84-.52h45.03c1.65 0 3.35.29 5.09.88a10.75 10.75 0 0 1 7.27 7.87c.53 2.06.39 4.6-.42 7.6l-.69 2.54a36.27 36.27 0 0 1-9.2 15.47 15 15 0 0 1 5.63 7.92c.54 1.73.8 3.68.8 5.85 0 2.17-.35 4.57-1.06 7.2l-.7 2.58Zm-12.76-2.59c.48-1.76.63-3.33.45-4.73a7.53 7.53 0 0 0-1.35-3.6 6.99 6.99 0 0 0-3.01-2.3c-1.27-.54-2.78-.8-4.54-.8h-30.33l3.66-13.56h24.27c1.76 0 3.42-.27 4.98-.8a14.34 14.34 0 0 0 7.52-5.9c.91-1.4 1.61-2.98 2.08-4.74l.68-2.54c.53-1.93-.14-2.9-2.01-2.9h-38.35l-12.77 47.3h44.41c.24 0 .54 0 .89-.04a2.65 2.65 0 0 0 1.98-1.2c.32-.4.58-.98.77-1.7l.67-2.49ZM1150.97 27.7a33.3 33.3 0 0 1-8.16 14.61 32.15 32.15 0 0 1-5.76 4.74 38.06 38.06 0 0 1-6.17 3.24 32.38 32.38 0 0 1-6.09 1.83c-1.98.38-3.8.57-5.46.57l21.55 24.28h-20.8l-21.5-24.28h-9.68l3.63-13.46h30.43c1.73-.13 3.37-.49 4.92-1.06a16.4 16.4 0 0 0 4.25-2.3 14.67 14.67 0 0 0 3.29-3.5 15.67 15.67 0 0 0 2.1-4.68l2.29-8.49c.2-.75.26-1.33.18-1.73a1.4 1.4 0 0 0-.49-.88 1.6 1.6 0 0 0-.84-.34 8.12 8.12 0 0 0-.89-.05h-44.41l-16.4 60.77h-13.45l18.2-67.44c.25-.94.66-1.82 1.23-2.64.57-.83 1.24-1.56 2.01-2.18a9.13 9.13 0 0 1 2.54-1.45 7.99 7.99 0 0 1 2.83-.51h51.08c3 0 5.39.54 7.17 1.63a10.4 10.4 0 0 1 3.94 4.08c.86 1.64 1.31 3.41 1.37 5.31a18.4 18.4 0 0 1-.59 5.33l-2.32 8.6ZM1180.11 2.75h-13.46l-20.03 74.22h13.46l20.03-74.22ZM1254.63 16.2h-29.66l-16.4 60.77h-13.46l16.4-60.77h-29.7l3.63-13.45h72.82l-3.63 13.45ZM1277.04 2.75h-13.45l-20.04 74.22h13.46l20.03-74.22ZM1345.3 55.12a28.98 28.98 0 0 1-2.95 7.17c-1.24 2.13-2.64 4-4.18 5.62-1.54 1.62-3.21 3-5 4.14a33.31 33.31 0 0 1-5.36 2.8 29.12 29.12 0 0 1-5.27 1.6c-1.73.34-3.32.52-4.77.52h-51.91l3.63-13.46h51.91c2.59 0 4.8-.76 6.65-2.28a11.58 11.58 0 0 0 3.79-6.1c.34-1.25.45-2.39.35-3.42a5.83 5.83 0 0 0-.9-2.7 4.92 4.92 0 0 0-2.11-1.75 7.72 7.72 0 0 0-3.23-.62H1295c-2.17 0-4.41-.4-6.72-1.17a14.94 14.94 0 0 1-6-3.75 14.19 14.19 0 0 1-3.55-6.78c-.68-2.8-.48-6.21.61-10.25a28.3 28.3 0 0 1 4.91-10.22 31.1 31.1 0 0 1 7.21-6.78c2.63-1.74 5.31-3 8.04-3.78a27.1 27.1 0 0 1 7.35-1.16h45.81l-3.64 13.45h-45.8c-2.56 0-4.76.78-6.61 2.33a11.84 11.84 0 0 0-3.81 6.16c-.7 2.59-.53 4.63.49 6.13 1.03 1.5 2.82 2.26 5.37 2.26h31.06c1.44.03 2.92.23 4.44.59 1.53.36 2.99.92 4.39 1.68 1.4.76 2.67 1.72 3.8 2.88a13.23 13.23 0 0 1 2.74 4.16 15.94 15.94 0 0 1 1.15 5.6 23.7 23.7 0 0 1-.94 7.13ZM1371.33 33.08h47.25l8.19-30.33h13.45l-20.03 74.22h-13.46l8.19-30.33h-47.25l-8.19 30.33h-13.46l20.03-74.22h13.46l-8.18 30.33Z"/>
    <path fill="#FFED00" stroke="#fff" stroke-linejoin="round" stroke-miterlimit="2" stroke-width="2.38" d="M1038.24 142.33a28.59 28.59 0 0 1-2.94 7.17 30.8 30.8 0 0 1-4.18 5.62c-1.54 1.62-3.21 3-5 4.14a33.73 33.73 0 0 1-5.36 2.8 29.12 29.12 0 0 1-5.27 1.6c-1.74.34-3.33.51-4.78.51h-51.9l3.62-13.45h51.92c2.58 0 4.8-.76 6.64-2.28a11.6 11.6 0 0 0 3.8-6.1c.33-1.25.45-2.39.35-3.43a5.83 5.83 0 0 0-.9-2.69 4.95 4.95 0 0 0-2.12-1.76 7.68 7.68 0 0 0-3.22-.62h-30.95c-2.18 0-4.42-.38-6.73-1.16a14.95 14.95 0 0 1-6-3.75 14.25 14.25 0 0 1-3.55-6.79c-.68-2.79-.47-6.2.62-10.24a28.27 28.27 0 0 1 4.9-10.23 31.02 31.02 0 0 1 7.22-6.77c2.63-1.75 5.3-3 8.03-3.78a27.15 27.15 0 0 1 7.35-1.17h45.81l-3.63 13.46h-45.8c-2.56 0-4.76.78-6.61 2.33a11.82 11.82 0 0 0-3.81 6.16c-.7 2.58-.54 4.63.49 6.13s2.81 2.25 5.37 2.25h31.05c1.44.04 2.93.23 4.45.6 1.52.36 2.99.92 4.38 1.68 1.4.76 2.67 1.72 3.81 2.87a13.04 13.04 0 0 1 2.73 4.17 15.94 15.94 0 0 1 1.16 5.59c.09 2.1-.23 4.48-.95 7.14ZM1113.41 157.4a9.34 9.34 0 0 1-3.27 4.84 9.61 9.61 0 0 1-2.56 1.41c-.92.35-1.84.52-2.78.52h-30.33c-2.86 0-5.67-.3-8.44-.93a30.18 30.18 0 0 1-7.74-2.87 25 25 0 0 1-6.4-4.94c-1.88-2-3.35-4.38-4.42-7.12a27.52 27.52 0 0 1-1.73-9.42c-.08-3.54.47-7.48 1.64-11.83l10.02-37.1h13.45l-10.01 37.1c-1.03 3.8-1.37 7-1.02 9.63a15.66 15.66 0 0 0 2.23 6.57 13.12 13.12 0 0 0 4.22 4.14c1.66 1 3.3 1.75 4.91 2.23 1.61.48 3.07.78 4.36.9 1.3.13 2.15.19 2.57.19h23.65l16.4-60.77h13.46l-18.21 67.44ZM1208.16 121a33.07 33.07 0 0 1-8.16 14.62 32.15 32.15 0 0 1-5.76 4.74 36.51 36.51 0 0 1-6.17 3.21 33.06 33.06 0 0 1-6.08 1.81c-1.98.38-3.8.57-5.46.57h-30.43l3.63-13.45h30.44c1.76-.14 3.42-.5 4.97-1.06a16.05 16.05 0 0 0 4.22-2.3 14.79 14.79 0 0 0 5.35-8.13l1.65-6.11c.28-1.7.34-3.24.17-4.66a8.06 8.06 0 0 0-1.28-3.62 6.9 6.9 0 0 0-2.8-2.36c-1.2-.57-2.67-.85-4.43-.85h-30.33c-1.8 0-3.29.47-4.47 1.4a7.45 7.45 0 0 0-2.49 4.03l-14.93 55.33h-13.46l14.94-55.33a24.1 24.1 0 0 1 4.26-8.8 26.49 26.49 0 0 1 6.29-5.84 25.55 25.55 0 0 1 7.01-3.24c2.39-.67 4.51-1 6.38-1h30.43c3.04 0 5.66.38 7.86 1.16 2.21.77 4.06 1.8 5.56 3.1a14.37 14.37 0 0 1 3.5 4.48 20.4 20.4 0 0 1 1.78 5.3c.34 1.85.45 3.71.33 5.6a27.4 27.4 0 0 1-.87 5.3l-1.65 6.1ZM1272.55 133.84h-42.5l3.66-13.56h42.5l-3.66 13.56Zm-2.13 30.33h-48.55a19 19 0 0 1-5.84-.98 12.72 12.72 0 0 1-5.26-3.23 12.53 12.53 0 0 1-3.13-5.85c-.62-2.4-.45-5.34.49-8.83l13.1-48.55c.25-.93.66-1.8 1.23-2.64.57-.82 1.24-1.55 2.01-2.17a9.13 9.13 0 0 1 2.54-1.45 8.03 8.03 0 0 1 2.83-.52h60.61l-3.63 13.46h-53.93l-11.3 41.87c-.48 1.76-.38 3.1.3 4.04.68.93 1.92 1.4 3.71 1.4h48.45l-3.63 13.45ZM1366.21 114.9a33.1 33.1 0 0 1-8.16 14.62 32.15 32.15 0 0 1-5.76 4.74 37.74 37.74 0 0 1-6.18 3.23c-2.07.85-4.1 1.46-6.08 1.84-1.98.38-3.8.57-5.46.57l21.55 24.27h-20.8l-21.51-24.27h-9.67l3.63-13.46h30.43c1.73-.14 3.37-.49 4.92-1.06a16.17 16.17 0 0 0 4.24-2.3 14.5 14.5 0 0 0 3.3-3.5 15.67 15.67 0 0 0 2.1-4.68l2.29-8.49c.2-.76.26-1.34.18-1.73-.08-.4-.25-.7-.49-.88a1.6 1.6 0 0 0-.84-.34 8.12 8.12 0 0 0-.89-.05h-44.41l-16.4 60.76h-13.45l18.2-67.44c.25-.93.66-1.8 1.23-2.64.57-.82 1.24-1.55 2.01-2.17a9 9 0 0 1 2.54-1.45 7.99 7.99 0 0 1 2.83-.52h51.08c3 0 5.39.55 7.17 1.63a10.4 10.4 0 0 1 3.94 4.1c.85 1.63 1.31 3.4 1.37 5.3a18.4 18.4 0 0 1-.59 5.33l-2.32 8.59ZM1448.14 164.17h-13.56l11.93-44.2-35.19 41.98a8.62 8.62 0 0 1-3.11 2.43 8.6 8.6 0 0 1-3.62.83 5.59 5.59 0 0 1-3.06-.83 4.05 4.05 0 0 1-1.75-2.43l-12.63-41.98-11.93 44.2h-13.46l18.48-68.47a9 9 0 0 1 2.49-4.14 9.42 9.42 0 0 1 4.25-2.44 7.61 7.61 0 0 1 2.23-.18c.71.06 1.36.21 1.97.47a4.26 4.26 0 0 1 2.48 2.77l16.27 53.26 45.02-53.26a9.53 9.53 0 0 1 4.04-2.8 7.3 7.3 0 0 1 4.44-.26 4.63 4.63 0 0 1 2.91 2.44c.61 1.2.71 2.58.29 4.14l-18.49 68.47ZM1545.11 134.15a41.3 41.3 0 0 1-5.7 12.48 43.55 43.55 0 0 1-9.12 9.83 41.9 41.9 0 0 1-11.55 6.44 37.45 37.45 0 0 1-12.97 2.3h-18.22c-4.45 0-8.36-.76-11.74-2.3a20.02 20.02 0 0 1-8.09-6.44 21.6 21.6 0 0 1-3.85-9.83c-.55-3.8-.2-7.96 1.02-12.48l3.82-14.18a40.78 40.78 0 0 1 5.71-12.45c2.6-3.8 5.66-7.09 9.16-9.83s7.36-4.9 11.57-6.44a37.35 37.35 0 0 1 13-2.33h18.22c4.45 0 8.36.77 11.71 2.33a20.45 20.45 0 0 1 8.07 6.44 21.08 21.08 0 0 1 3.81 9.83 31.4 31.4 0 0 1-1.03 12.45l-3.82 14.18Zm-9.64-14.18c.72-2.66.95-5.06.68-7.22-.26-2.16-.95-4-2.07-5.54a11 11 0 0 0-4.57-3.57 16.8 16.8 0 0 0-6.78-1.27h-18.22c-2.62 0-5.12.43-7.51 1.27a22.98 22.98 0 0 0-11.62 9.11 24.87 24.87 0 0 0-3.22 7.22l-3.82 14.18a18.98 18.98 0 0 0-.68 7.22c.27 2.16.96 4 2.1 5.54a11.24 11.24 0 0 0 4.6 3.57c1.93.85 4.21 1.27 6.83 1.27h18.12a22.92 22.92 0 0 0 19.12-10.38 24.59 24.59 0 0 0 3.22-7.22l3.82-14.18ZM1628.08 103.4h-29.66l-16.4 60.77h-13.45l16.4-60.76h-29.71l3.64-13.46h72.82l-3.64 13.46ZM1701.87 134.15a41.06 41.06 0 0 1-5.7 12.48 43.32 43.32 0 0 1-9.12 9.83 41.85 41.85 0 0 1-11.54 6.44 37.54 37.54 0 0 1-12.98 2.3h-18.22c-4.45 0-8.36-.76-11.74-2.3a20.02 20.02 0 0 1-8.09-6.44 21.6 21.6 0 0 1-3.85-9.83c-.55-3.8-.2-7.96 1.02-12.48l3.82-14.18a40.78 40.78 0 0 1 5.71-12.45c2.6-3.8 5.66-7.09 9.16-9.83s7.36-4.9 11.57-6.44a37.35 37.35 0 0 1 13-2.33h18.22c4.45 0 8.36.77 11.72 2.33a20.42 20.42 0 0 1 8.06 6.44 20.97 20.97 0 0 1 3.81 9.83c.53 3.82.18 7.97-1.03 12.45l-3.82 14.18Zm-9.63-14.18c.72-2.66.94-5.06.68-7.22-.26-2.16-.96-4-2.07-5.54a11.1 11.1 0 0 0-4.58-3.57 16.8 16.8 0 0 0-6.78-1.27h-18.22a22.9 22.9 0 0 0-19.13 10.38 24.85 24.85 0 0 0-3.21 7.22l-3.82 14.18a19 19 0 0 0-.69 7.22c.27 2.16.97 4 2.1 5.54a11.2 11.2 0 0 0 4.61 3.57c1.92.85 4.2 1.27 6.82 1.27h18.12c2.62 0 5.12-.42 7.51-1.27a23 23 0 0 0 11.62-9.1 24.85 24.85 0 0 0 3.22-7.23l3.82-14.18Z"/>
    <path fill="#fff" d="M1487.65 1.72h-21.45a5.17 5.17 0 0 0-4.99 3.83l-5.78 21.58h25.41l6.81-25.41ZM1506.26 27.13h21.45a5.18 5.18 0 0 0 5-3.83l5.78-21.58h-21.45a5.16 5.16 0 0 0-4.99 3.83l-5.79 21.58ZM1500.48 48.72l5.78-21.58h-25.42l-6.81 25.41h21.45a5.18 5.18 0 0 0 5-3.83ZM1468.25 74.14l5.78-21.59h-21.45a5.16 5.16 0 0 0-4.99 3.83l-5.78 21.59h21.45a5.17 5.17 0 0 0 4.99-3.83ZM263.82 26.92l8.3-26.37S196.5-9.33 161.75 54.6c-4.77-5.98-9.95-8.29-9.95-8.29-9.35-3.06-20.18 1.17-20.18 1.17 12.27 1.37 23.3 24.35 23.3 24.35l13.69-1.58s18.08-30.67 81.95-1.25l9.23-29.3a68.74 68.74 0 0 0-17.99-3.33c.33-5.2 1.32-9.31 2.03-11.7a92.19 92.19 0 0 1 19.99 2.25Zm-30.33-1.82c-1.3 3.48-1.74 7.92-1.86 11.3-5.79.39-11.47 1.32-16.9 2.6a54 54 0 0 1 1.82-10.92c6-1.56 11.7-2.5 16.94-2.98Zm-64.1 33.27v-4.99c3.19-2.74 6.38-5.2 9.56-7.47.2 2.2.6 4.4 1.04 6.31a124.83 124.83 0 0 0-10.6 6.15Zm20.07-10.74a53.27 53.27 0 0 1-.7-8.07c5.65-3.26 11.2-5.84 16.59-7.9a52.9 52.9 0 0 0-.84 10.18 151.5 151.5 0 0 0-15.05 5.79ZM127.2 74.42c-1.08-.85-1.62-2.36-1.62-4.52v-2.2c0-2.16.59-3.66 1.74-4.51 1.16-.85 3.01-1.28 5.56-1.28 2.7 0 4.59.43 5.67 1.28 1.08.85 1.62 2.35 1.62 4.51v2.2c0 2.24-.56 3.76-1.68 4.57-1.12.81-3.03 1.22-5.73 1.22-2.62 0-4.47-.42-5.55-1.27ZM278.48 143c-.47-.47-.7-1.14-.7-2.01v-.77c0-.87.23-1.53.7-2 .46-.46 1.13-.7 2-.7h.58c.87 0 1.54.24 2 .7.47.47.7 1.13.7 2v.77c0 .87-.23 1.54-.7 2-.46.47-1.13.7-2 .7h-.58c-.87 0-1.54-.23-2-.7ZM309.09 120.45c.5.53.76 1.18.76 1.96v11.43c0 3.24-.9 5.77-2.67 7.6-1.79 1.83-4.33 2.74-7.63 2.74s-5.83-.91-7.6-2.74c-1.77-1.83-2.66-4.36-2.66-7.6V122.4c0-.78.26-1.43.77-1.96a2.59 2.59 0 0 1 1.93-.78c.78 0 1.43.26 1.94.78.5.53.76 1.18.76 1.96v11.43c0 1.83.4 3.18 1.22 4.07.8.88 2.02 1.33 3.64 1.33 1.65 0 2.88-.45 3.69-1.33.81-.89 1.21-2.24 1.21-4.07V122.4c0-.78.26-1.43.77-1.96.5-.52 1.15-.78 1.93-.78s1.43.26 1.94.78ZM336.57 141.03c0 .75-.29 1.38-.88 1.9a2.8 2.8 0 0 1-1.86.76c-.78 0-1.44-.3-1.98-.9l-8.1-8.55-2.2 2.02V141a2.7 2.7 0 0 1-.77 1.96c-.5.52-1.15.78-1.93.78s-1.43-.26-1.94-.78a2.7 2.7 0 0 1-.76-1.96v-27.8c0-.78.25-1.43.76-1.96a2.59 2.59 0 0 1 1.94-.79c.78 0 1.42.27 1.93.8.51.52.77 1.17.77 1.95v16.64l9.63-9.3a2.71 2.71 0 0 1 1.97-.86c.66 0 1.26.27 1.78.83.53.55.79 1.12.79 1.69 0 .72-.36 1.39-1.08 2.02l-6.8 6.25 7.88 8.55c.57.6.85 1.28.85 2.02ZM63.55 65.97a6.37 6.37 0 0 1 1.96 4.86c0 2-.65 3.6-1.96 4.8a7.26 7.26 0 0 1-5.1 1.8H40.28v60.65c0 2-.73 3.68-2.2 5.03a7.73 7.73 0 0 1-5.44 2.03 7.32 7.32 0 0 1-5.32-2.03 6.73 6.73 0 0 1-2.09-5.03V77.43H7.06a7.13 7.13 0 0 1-5.1-1.86A6.36 6.36 0 0 1 0 70.71c0-1.93.67-3.5 2.03-4.74a7.18 7.18 0 0 1 5.03-1.86h51.4c2.08 0 3.77.62 5.09 1.86ZM114.53 84.02c1.58 1.32 2.38 2.86 2.38 4.63 0 2.4-.62 4.19-1.86 5.38a6.1 6.1 0 0 1-4.4 1.8c-1.15 0-2.47-.27-3.93-.81-.23-.08-.75-.23-1.56-.46a9.47 9.47 0 0 0-2.6-.35c-2.02 0-3.94.62-5.8 1.85a13.52 13.52 0 0 0-4.57 5.61c-1.2 2.51-1.8 5.5-1.8 8.97v27.44c0 2-.65 3.68-1.96 5.03a6.65 6.65 0 0 1-4.98 2.03c-2 0-3.66-.68-4.97-2.03a6.93 6.93 0 0 1-1.97-5.03v-47.8c0-2.01.65-3.7 1.97-5.04a6.65 6.65 0 0 1 4.97-2.03c2.01 0 3.67.68 4.98 2.03a6.95 6.95 0 0 1 1.97 5.03v1.5a17.54 17.54 0 0 1 7.64-7.23 23.48 23.48 0 0 1 10.65-2.49c2.31 0 4.26.66 5.84 1.97ZM137.85 143.11a6.65 6.65 0 0 1-4.97 2.03c-2.01 0-3.67-.68-4.98-2.03a6.93 6.93 0 0 1-1.97-5.03v-47.8c0-2.01.66-3.7 1.97-5.04a6.65 6.65 0 0 1 4.98-2.03c2 0 3.66.68 4.97 2.03a6.94 6.94 0 0 1 1.97 5.03v47.8c0 2.02-.65 3.7-1.97 5.04ZM196.54 128c3.16-3.7 4.75-8.33 4.75-13.88 0-5.56-1.57-10.17-4.7-13.84-3.12-3.66-7.19-5.5-12.2-5.5-5.02 0-9.11 1.84-12.27 5.5-3.17 3.67-4.75 8.28-4.75 13.84 0 5.55 1.58 10.18 4.75 13.89a15.39 15.39 0 0 0 12.26 5.55c4.94 0 9-1.85 12.16-5.55Zm4.05-41.84a28.8 28.8 0 0 1 10.24 11.4c2.51 4.87 3.77 10.38 3.77 16.56 0 6.17-1.24 11.7-3.7 16.6a28.46 28.46 0 0 1-10.14 11.47 25.78 25.78 0 0 1-14.17 4.1c-3.7 0-7.2-.75-10.48-2.25-3.28-1.5-6-3.34-8.16-5.5v22.69c0 2-.66 3.68-1.97 5.03a6.66 6.66 0 0 1-4.98 2.03c-2 0-3.66-.66-4.97-1.97a6.89 6.89 0 0 1-1.97-5.1V90.28c0-2 .65-3.68 1.97-5.03A6.65 6.65 0 0 1 161 83.2c2.01 0 3.67.68 4.98 2.03a6.95 6.95 0 0 1 1.97 5.03v.47a23.95 23.95 0 0 1 7.75-6.08 22.18 22.18 0 0 1 10.42-2.6c5.33 0 10.15 1.37 14.47 4.1ZM270.27 134.2a6.1 6.1 0 0 1 1.85 4.57c0 1.78-.62 3.28-1.85 4.51a6.28 6.28 0 0 1-4.63 1.86h-37.27a5.86 5.86 0 0 1-4.46-1.91 5.91 5.91 0 0 1-1.8-4.11c0-1.31.16-2.41.47-3.3.3-.89.89-1.91 1.74-3.07l27.55-35.65H229.4c-1.85 0-3.4-.62-4.63-1.85a6.28 6.28 0 0 1-1.85-4.63c0-1.77.61-3.26 1.85-4.46a6.39 6.39 0 0 1 4.63-1.79h35.65c1.7 0 3.14.6 4.34 1.8a6.06 6.06 0 0 1 1.8 4.45c0 1.16-.12 2.14-.35 2.95a8.76 8.76 0 0 1-1.62 2.84l-27.78 36h24.19c1.85 0 3.4.6 4.63 1.79Z"/>
    <path stroke="#fff" stroke-linecap="square" stroke-linejoin="round" stroke-miterlimit="1.5" stroke-width="9.98" d="M367.33 6.3V162"/>
  </g>
  <defs>
    <clipPath id="a">
      <path fill="#fff" d="M0 0h1714.08v169H0z"/>
    </clipPath>
  </defs>
</svg>
