<svg xmlns="http://www.w3.org/2000/svg" width="296" height="48" fill="none">
  <g clip-path="url(#a)">
    <path fill="#fff" d="m74.93 7.65 2.36-7.5S55.8-2.64 45.94 15.52c-1.35-1.7-2.83-2.36-2.83-2.36-2.65-.87-5.73.34-5.73.34 3.49.38 6.62 6.91 6.62 6.91l3.89-.45s5.14-8.7 23.28-.35l2.62-8.32c-1.68-.56-3.4-.85-5.11-.95.1-1.47.37-2.64.57-3.32 2.58.02 4.57.38 5.68.64Zm-8.61-.52c-.37.99-.5 2.25-.53 3.21-1.65.1-3.26.37-4.8.74.08-1.33.32-2.41.52-3.1 1.7-.45 3.32-.71 4.8-.85ZM48.1 16.58v-1.42a37.8 37.8 0 0 1 2.72-2.12c.05.62.17 1.25.29 1.8a35.46 35.46 0 0 0-3.01 1.74Zm5.7-3.05c-.15-.93-.2-1.71-.2-2.3A32.3 32.3 0 0 1 58.32 9c-.2 1.06-.24 2.2-.23 2.9-1.56.5-3 1.07-4.28 1.64ZM36.13 21.14c-.3-.25-.46-.67-.46-1.29v-.62c0-.61.16-1.04.5-1.28.32-.24.85-.36 1.57-.36.77 0 1.3.12 1.61.36.3.24.46.67.46 1.28v.62c0 .64-.16 1.07-.47 1.3-.32.23-.87.35-1.63.35-.75 0-1.27-.12-1.58-.36ZM79.1 40.61c-.14-.13-.2-.32-.2-.57v-.21c0-.25.06-.44.2-.57.13-.13.32-.2.56-.2h.17c.25 0 .44.07.57.2.13.13.2.32.2.57v.21c0 .25-.07.44-.2.57-.13.14-.32.2-.57.2h-.17c-.24 0-.43-.06-.57-.2ZM87.79 34.21c.14.15.22.34.22.56V38c0 .92-.26 1.64-.76 2.16-.51.52-1.23.78-2.17.78s-1.66-.26-2.16-.78a2.97 2.97 0 0 1-.75-2.16v-3.24c0-.22.07-.4.21-.56a.73.73 0 0 1 .55-.22c.22 0 .4.07.55.22.15.15.22.34.22.56V38c0 .52.11.9.34 1.16.23.25.58.38 1.04.38.47 0 .82-.13 1.05-.38.23-.25.34-.64.34-1.16v-3.24c0-.22.07-.4.22-.56a.73.73 0 0 1 .55-.22c.22 0 .4.07.55.22ZM95.6 40.06c0 .21-.09.39-.25.53a.8.8 0 0 1-.53.22.73.73 0 0 1-.57-.25l-2.3-2.43-.62.57v1.34c0 .23-.08.41-.22.56a.73.73 0 0 1-.55.22.73.73 0 0 1-.55-.22.77.77 0 0 1-.22-.56v-7.9c0-.21.08-.4.22-.55a.73.73 0 0 1 .55-.22c.22 0 .4.07.55.22.14.15.22.34.22.56v4.73l2.73-2.65a.77.77 0 0 1 .56-.24c.2 0 .36.08.5.23.16.16.23.32.23.48 0 .2-.1.4-.3.58l-1.93 1.77 2.23 2.43c.16.17.24.36.24.58ZM18.05 18.74c.37.35.56.8.56 1.38 0 .57-.19 1.02-.56 1.36-.37.34-.86.51-1.45.51h-5.16v17.23c0 .57-.2 1.04-.62 1.43a2.2 2.2 0 0 1-1.55.57c-.61 0-1.12-.19-1.51-.57-.4-.39-.6-.86-.6-1.43V21.99H2.02c-.6 0-1.08-.17-1.45-.53A1.8 1.8 0 0 1 0 20.08c0-.54.2-1 .58-1.34.38-.35.86-.53 1.43-.53h14.6c.58 0 1.07.18 1.44.53ZM32.53 23.86c.45.38.67.82.67 1.32 0 .68-.17 1.19-.52 1.53-.35.34-.77.5-1.25.5-.33 0-.7-.07-1.12-.22a15 15 0 0 0-.44-.13 2.92 2.92 0 0 0-2.38.43c-.53.34-.97.88-1.3 1.59a5.87 5.87 0 0 0-.51 2.55v7.79c0 .57-.2 1.04-.56 1.43-.38.38-.85.57-1.42.57s-1.04-.19-1.41-.57a1.97 1.97 0 0 1-.56-1.43V25.64c0-.57.19-1.05.56-1.43.37-.38.84-.58 1.41-.58s1.04.2 1.42.58c.37.38.56.86.56 1.43v.43c.5-.9 1.22-1.59 2.17-2.06.94-.47 1.95-.7 3.02-.7.66 0 1.21.18 1.66.55ZM39.15 40.65c-.37.38-.84.57-1.4.57-.58 0-1.05-.19-1.42-.57a1.97 1.97 0 0 1-.56-1.43V25.64c0-.57.18-1.05.56-1.43.37-.38.84-.58 1.41-.58s1.04.2 1.41.58c.38.38.56.86.56 1.43v13.58c0 .57-.18 1.04-.56 1.43ZM55.82 36.36a5.86 5.86 0 0 0 1.35-3.95c0-1.58-.44-2.89-1.33-3.93a4.34 4.34 0 0 0-3.47-1.56c-1.42 0-2.59.52-3.48 1.56a5.8 5.8 0 0 0-1.35 3.93c0 1.58.45 2.9 1.35 3.95a4.37 4.37 0 0 0 3.48 1.58c1.4 0 2.55-.53 3.45-1.58Zm1.15-11.89a8.18 8.18 0 0 1 2.91 3.24 10.1 10.1 0 0 1 1.07 4.7c0 1.76-.35 3.33-1.05 4.72a8.08 8.08 0 0 1-2.88 3.25 7.32 7.32 0 0 1-7 .53 7.88 7.88 0 0 1-2.32-1.56v6.44c0 .57-.19 1.05-.56 1.43a1.9 1.9 0 0 1-1.41.58 1.91 1.91 0 0 1-1.97-2V25.63c0-.57.18-1.05.56-1.43.37-.38.84-.58 1.4-.58.58 0 1.05.2 1.42.58.38.38.56.86.56 1.43v.13a6.8 6.8 0 0 1 2.2-1.72 6.3 6.3 0 0 1 2.96-.74c1.52 0 2.88.39 4.11 1.16ZM76.76 38.12c.35.34.53.77.53 1.3 0 .5-.18.93-.53 1.28-.35.35-.79.52-1.31.52H64.86c-.5 0-.92-.18-1.26-.54-.34-.36-.51-.75-.51-1.17 0-.37.04-.68.13-.93.09-.26.25-.55.5-.88l7.82-10.12h-6.38a1.78 1.78 0 0 1-1.84-1.84c0-.5.17-.93.52-1.27.35-.34.8-.5 1.32-.5h10.12a1.72 1.72 0 0 1 1.74 1.78c0 .32-.03.6-.1.83-.06.23-.21.5-.45.8l-7.9 10.23h6.88c.52 0 .96.17 1.31.5Z"/>
    <path stroke="#fff" stroke-linecap="square" stroke-linejoin="round" stroke-miterlimit="1.5" stroke-width="2.84" d="M104.33 1.8V46"/>
    <path fill="#fff" d="M120.86 46.14c-.05.17-.12.35-.23.53a2.22 2.22 0 0 1-1.04.94c-.22.1-.5.16-.79.16h-5.1a.68.68 0 0 1-.26-.05.62.62 0 0 1-.17-.14.44.44 0 0 1-.08-.22.5.5 0 0 1 .02-.27l1.63-6.04c.03-.1.06-.18.13-.27a.89.89 0 0 1 .73-.41h4.5c.15 0 .33.03.5.08a1.1 1.1 0 0 1 .72.78c.06.22.04.47-.04.77l-.06.25a3.83 3.83 0 0 1-.92 1.54 1.46 1.46 0 0 1 .56.8c.05.17.08.36.08.58 0 .21-.04.45-.11.72l-.07.25Zm-1.27-.25c.05-.18.06-.34.05-.48a1.02 1.02 0 0 0-.14-.36.81.81 0 0 0-.3-.23 1.24 1.24 0 0 0-.45-.07h-3.03l.36-1.36h2.42a1.53 1.53 0 0 0 .93-.3 1.7 1.7 0 0 0 .53-.84l.07-.25c.05-.2-.02-.29-.2-.29h-3.82l-1.28 4.72h4.52l.1-.03.1-.1c.03-.04.06-.1.08-.17l.06-.24ZM129.84 42.85a3.2 3.2 0 0 1-1.39 1.93 3.82 3.82 0 0 1-1.21.52c-.2.03-.38.05-.54.05l2.14 2.42h-2.08l-2.14-2.42h-.97l.36-1.34h3.05a1.8 1.8 0 0 0 .9-.34c.14-.1.24-.21.34-.35.1-.14.15-.29.2-.47l.23-.84c.02-.08.04-.14.02-.17 0-.04-.02-.07-.04-.1l-.1-.03h-4.5l-1.64 6.06h-1.34l1.81-6.72c.03-.1.06-.18.13-.27a.9.9 0 0 1 .2-.22.8.8 0 0 1 .24-.14.7.7 0 0 1 .3-.05h5.09c.3 0 .53.05.7.16.19.1.32.24.4.41.09.16.13.34.13.53.02.19 0 .36-.06.53l-.23.85ZM132.76 40.37h-1.34l-2 7.4h1.34l2-7.4ZM140.2 41.71h-2.97l-1.63 6.06h-1.35l1.64-6.06h-2.96l.36-1.34h7.26l-.36 1.34ZM142.43 40.37h-1.35l-2 7.4h1.35l2-7.4ZM149.23 45.6a3.05 3.05 0 0 1-.71 1.27 3.08 3.08 0 0 1-2.04.9h-5.17l.36-1.34h5.17a1 1 0 0 0 .66-.22 1.16 1.16 0 0 0 .42-.96c0-.1-.03-.2-.08-.27a.52.52 0 0 0-.22-.17.72.72 0 0 0-.33-.06h-3.08c-.21 0-.44-.05-.67-.12a1.48 1.48 0 0 1-.96-1.05 2.2 2.2 0 0 1 .07-1.02 2.98 2.98 0 0 1 1.21-1.7 2.77 2.77 0 0 1 1.53-.49h4.58l-.37 1.34h-4.57a.98.98 0 0 0-.66.23c-.18.15-.3.36-.38.62-.06.25-.05.46.05.61.1.15.28.22.53.22h3.1c.15 0 .3.02.45.07.15.03.3.08.44.16s.26.18.38.3c.1.1.2.25.27.4.07.16.1.35.11.56 0 .2-.01.45-.09.71ZM151.83 43.4h4.7l.82-3.03h1.34l-2 7.4h-1.34l.82-3.02h-4.7l-.82 3.02h-1.34l2-7.4h1.34l-.82 3.02Z"/>
    <path fill="#FFED00" stroke="#fff" stroke-linejoin="round" stroke-miterlimit="2" stroke-width=".23" d="M165.5 45.6a2.92 2.92 0 0 1-2.74 2.17h-5.18l.36-1.34h5.18a1 1 0 0 0 .66-.23 1.15 1.15 0 0 0 .42-.95.58.58 0 0 0-.1-.27.49.49 0 0 0-.2-.17.77.77 0 0 0-.32-.06h-3.1a2.1 2.1 0 0 1-.66-.12 1.42 1.42 0 0 1-.95-1.05 2.1 2.1 0 0 1 .06-1.02 2.83 2.83 0 0 1 1.2-1.7 2.87 2.87 0 0 1 1.54-.5h4.57l-.36 1.35h-4.57a1 1 0 0 0-.66.23c-.19.16-.31.36-.38.62-.07.25-.05.46.05.6.1.16.28.23.53.23h3.1a2.15 2.15 0 0 1 .88.23c.14.08.27.17.38.29.11.11.2.25.27.41.07.16.11.35.12.56 0 .2-.02.45-.1.71ZM173 47.1a.93.93 0 0 1-.86.68h-3.02c-.29-.01-.57-.04-.84-.1a3 3 0 0 1-.78-.29c-.23-.13-.45-.3-.63-.5a2.2 2.2 0 0 1-.44-.7c-.11-.28-.17-.59-.18-.94 0-.35.05-.75.17-1.18l1-3.7h1.34l-1 3.7c-.1.38-.14.7-.1.96.03.26.1.48.22.65.11.18.25.32.42.42a2.17 2.17 0 0 0 1.18.33h2.36l1.64-6.06h1.34L173 47.09ZM182.45 43.47a3.4 3.4 0 0 1-.81 1.45 3.2 3.2 0 0 1-1.2.8 3.3 3.3 0 0 1-1.14.23h-3.04l.37-1.34h3.03a1.6 1.6 0 0 0 .92-.34 1.49 1.49 0 0 0 .53-.8l.16-.61c.03-.17.04-.33.02-.47a.8.8 0 0 0-.13-.36.69.69 0 0 0-.28-.23 1.02 1.02 0 0 0-.44-.09h-3.02a.7.7 0 0 0-.45.14c-.12.1-.2.23-.25.4l-1.48 5.52h-1.35l1.5-5.52c.09-.34.23-.63.42-.88a2.64 2.64 0 0 1 1.32-.9c.24-.07.45-.1.64-.1h3.04c.3 0 .56.04.78.11.22.08.4.18.55.31.15.13.27.28.35.45a2.03 2.03 0 0 1 .21 1.09c-.01.18-.04.36-.08.53l-.17.6ZM188.87 44.75h-4.23l.36-1.36h4.24l-.37 1.36Zm-.2 3.02h-4.85a1.9 1.9 0 0 1-.58-.1c-.2-.06-.38-.17-.53-.32a1.26 1.26 0 0 1-.31-.58c-.06-.24-.05-.54.05-.88l1.3-4.85a1 1 0 0 1 .58-.62.8.8 0 0 1 .29-.05h6.04l-.36 1.34h-5.38l-1.13 4.18c-.05.17-.04.3.03.4.07.1.2.14.37.14h4.83l-.36 1.34ZM198.22 42.86a3.35 3.35 0 0 1-1.4 1.93 3.8 3.8 0 0 1-1.22.5c-.2.04-.38.06-.54.06l2.15 2.42h-2.08L193 45.35h-.97l.37-1.34h3.03a1.84 1.84 0 0 0 .92-.34 1.47 1.47 0 0 0 .53-.81l.23-.85a.4.4 0 0 0 .02-.17.15.15 0 0 0-.05-.1.16.16 0 0 0-.08-.02l-.1-.01h-4.42l-1.64 6.06h-1.34l1.82-6.73a.9.9 0 0 1 .12-.26 1.02 1.02 0 0 1 .45-.36.8.8 0 0 1 .29-.05h5.1c.3 0 .53.05.7.16.18.1.31.24.4.4.09.17.13.35.14.54 0 .19-.02.36-.06.53l-.23.86ZM206.39 47.77h-1.35l1.19-4.4-3.51 4.18a.86.86 0 0 1-.68.32.56.56 0 0 1-.3-.08.4.4 0 0 1-.18-.24l-1.26-4.19-1.19 4.41h-1.34l1.84-6.83a.9.9 0 0 1 .25-.41c.13-.12.27-.2.43-.24a.76.76 0 0 1 .22-.02.6.6 0 0 1 .2.04c.06.03.1.07.15.11l.1.17 1.62 5.31 4.49-5.31a.96.96 0 0 1 .4-.28c.15-.05.3-.06.44-.02.14.04.23.12.3.24.05.12.06.26.02.41l-1.84 6.83ZM216.06 44.78a4.08 4.08 0 0 1-1.48 2.22 4.16 4.16 0 0 1-2.45.87h-1.81c-.45 0-.84-.07-1.17-.23a2 2 0 0 1-1.2-1.62c-.05-.38-.01-.8.1-1.24l.39-1.42a4.34 4.34 0 0 1 2.64-2.87c.42-.15.85-.23 1.3-.23h1.8c.45 0 .84.08 1.18.24a2.03 2.03 0 0 1 1.18 1.62c.06.38.02.8-.1 1.24l-.38 1.42Zm-.96-1.42c.07-.26.1-.5.07-.72-.03-.21-.1-.4-.21-.55a1.1 1.1 0 0 0-.46-.36c-.19-.08-.41-.12-.67-.12H212a2.22 2.22 0 0 0-1.4.48 2.3 2.3 0 0 0-.83 1.27l-.38 1.42c-.07.26-.1.5-.07.72.03.21.1.4.21.55.11.15.27.27.46.36.2.08.42.12.68.12h1.8a2.22 2.22 0 0 0 1.4-.48 2.3 2.3 0 0 0 .84-1.27l.38-1.42ZM224.33 41.71h-2.95l-1.64 6.06h-1.34l1.63-6.06h-2.96l.36-1.34h7.27l-.37 1.34ZM231.7 44.78a4.13 4.13 0 0 1-1.48 2.22c-.35.28-.74.5-1.16.64-.41.16-.84.23-1.29.23h-1.82c-.44 0-.83-.07-1.17-.23a2 2 0 0 1-1.19-1.62 3.1 3.1 0 0 1 .1-1.24l.38-1.42a4.09 4.09 0 0 1 1.49-2.22c.34-.27.73-.49 1.15-.64.42-.16.85-.24 1.3-.24h1.81c.45 0 .84.08 1.17.24a2.03 2.03 0 0 1 1.19 1.62c.05.38.02.8-.1 1.24l-.39 1.42Zm-.97-1.42c.08-.26.1-.5.07-.72-.03-.21-.1-.4-.2-.55a1.1 1.1 0 0 0-.46-.36c-.2-.08-.42-.12-.68-.12h-1.81a2.23 2.23 0 0 0-1.4.48 2.31 2.31 0 0 0-.83 1.27l-.39 1.42c-.07.26-.09.5-.06.72.02.21.1.4.2.55.12.15.27.27.47.36.19.08.41.12.68.12h1.8a2.23 2.23 0 0 0 1.4-.48 2.33 2.33 0 0 0 .83-1.27l.38-1.42Z"/>
    <path fill="#fff" d="M153.07 28.25a9.32 9.32 0 0 1-1.09 2.53 10.68 10.68 0 0 1-4.96 4.5c-1.1.51-2.38.76-3.8.76h-24.4c-.45 0-.88-.1-1.24-.25-.31-.15-.6-.4-.84-.66-.22-.3-.32-.66-.37-1.06-.1-.35-.03-.81.1-1.27l7.8-28.95c.13-.45.29-.86.6-1.26A4.23 4.23 0 0 1 128.39.6h21.5c.77 0 1.59.16 2.43.41a5.2 5.2 0 0 1 3.44 3.75c.29 1 .21 2.22-.17 3.64l-.33 1.21c-.3 1.12-.84 2.38-1.55 3.7a18.26 18.26 0 0 1-2.87 3.7 7.02 7.02 0 0 1 2.72 3.79c.23.8.4 1.72.36 2.78.03 1.01-.18 2.18-.52 3.44l-.33 1.22Zm-6.05-1.22a6.1 6.1 0 0 0 .2-2.27 4.85 4.85 0 0 0-.64-1.72 3.84 3.84 0 0 0-1.42-1.12 5.93 5.93 0 0 0-2.18-.35h-14.53l1.75-6.48h11.6c.85 0 1.65-.15 2.38-.4.77-.26 1.43-.61 2.06-1.07a8.02 8.02 0 0 0 2.54-4l.33-1.21c.25-.91-.09-1.37-.95-1.37h-18.32l-6.1 22.58H145.37l.5-.16c.13-.1.32-.25.47-.45.16-.2.28-.46.38-.81l.3-1.17ZM191.24 25.62a14.75 14.75 0 0 1-3.43 6.12c-.76.76-1.55 1.42-2.4 1.98-.85.5-1.68.96-2.53 1.31-.86.36-1.69.6-2.54.76-.8.15-1.59.25-2.3.25H153.3l1.73-6.42h24.75c1.27 0 2.32-.36 3.17-1.07a5.58 5.58 0 0 0 1.86-2.93c.16-.61.21-1.17.13-1.62-.01-.5-.14-.96-.4-1.32a2.5 2.5 0 0 0-1.05-.8c-.4-.21-.93-.31-1.54-.31h-14.77c-1.02 0-2.08-.2-3.2-.56a7.07 7.07 0 0 1-4.57-5.01c-.28-1.37-.2-2.99.32-4.9a14.23 14.23 0 0 1 2.34-4.92 16.47 16.47 0 0 1 3.45-3.24 13.3 13.3 0 0 1 3.82-1.77c1.32-.4 2.48-.56 3.49-.56h21.91l-1.73 6.43H171.1c-1.22 0-2.23.36-3.14 1.12a5.7 5.7 0 0 0-1.8 2.93c-.33 1.22-.25 2.23.22 2.94.51.7 1.33 1.06 2.54 1.06h14.83c.71 0 1.44.1 2.15.3.72.16 1.4.4 2.12.76.65.4 1.24.86 1.8 1.42a6.88 6.88 0 0 1 1.83 4.66c.04.96-.07 2.12-.41 3.39ZM232.77 36.04h-6.47l5.7-21.1-16.8 20.04a4.4 4.4 0 0 1-3.26 1.57c-.56 0-1.03-.15-1.46-.4a1.88 1.88 0 0 1-.8-1.17l-6.03-20.04-5.7 21.1h-6.42l8.82-32.7c.2-.75.59-1.4 1.2-1.97a4.53 4.53 0 0 1 2.03-1.16c.33-.1.68-.1 1.03-.1a2.72 2.72 0 0 1 1.67.76c.2.2.37.5.44.8l7.77 25.41 21.54-25.4A4.35 4.35 0 0 1 237.97.3c.72-.25 1.4-.3 2.1-.1.6.2 1.1.6 1.35 1.16.3.56.38 1.22.18 1.98l-8.83 32.7ZM264.18.22h-13.32c-1.45 0-2.73.97-3.1 2.38l-3.6 13.4h15.8L264.17.23ZM275.74 16h13.32c1.45 0 2.73-.97 3.1-2.37l3.6-13.41h-13.33c-1.45 0-2.72.97-3.1 2.38l-3.6 13.4ZM272.15 29.41l3.59-13.4h-15.79l-4.23 15.78h13.33c1.45 0 2.72-.97 3.1-2.38ZM252.13 45.2l3.6-13.4H242.4c-1.45 0-2.72.97-3.1 2.37l-3.6 13.4h13.33c1.45 0 2.72-.97 3.1-2.37Z"/>
  </g>
  <defs>
    <clipPath id="a">
      <path fill="#fff" d="M0 0h296v48H0z"/>
    </clipPath>
  </defs>
</svg>