<svg xmlns="http://www.w3.org/2000/svg" width="2000" height="2000" fill="none">
  <path stroke="white" stroke-linecap="round" stroke-linejoin="round" stroke-miterlimit="1.5" stroke-width="50" d="M478.48 459.7s222.53 89.39 313 244.68c90.48 155.3 124.32 140.3 142.1 179.24 17.77 38.94-44.04 94.56-50.08 155.61-6.04 61.05 18.08 135.01 112.58 220.98 94.51 85.97 309.17 60.21 369.94 31.3 59.31-28.21 151.87-120.24 221.94-166.52 85.59-56.53 267.54-61.69 308.69 95.75 41.13 157.44-19.98 281.35-205.66 294.56-185.68 13.22-708.72 43.55-902.38 42.67-326.1-1.46-255.19-199.72-225.78-262.75 37.32-79.99 46.07-117.53 53.96-169.21 16.56-108.44-31.61-375.56-74.76-402.63-43.15-27.08-95.47 2.88-98.7 32.43-3.23 29.56 61.1 154.45 70.33 229.26 9.22 74.81-.36 130.46-40.35 167.96s-132.75 11.67-178.84-114.95S116.3 610.98 96.27 543.3c-22-74.34 25.08-213.14 168.05-164.88 92.95 31.37 139.56 51.09 214.16 81.28Z" clip-rule="evenodd"/>
</svg>