<svg xmlns="http://www.w3.org/2000/svg" width="2000" height="2000" fill="none">
  <path stroke="white" stroke-linecap="round" stroke-linejoin="round" stroke-miterlimit="1.5" stroke-width="50" d="m386.12 645.03 556.3 2.1s159.84-5.25 184.03 36.8c24.19 42.07 17.88 141.98 44.17 170.37 26.29 28.4 94.82 11.52 158.79 17.88 81.76 8.12 141.61 40.96 181.57 57.78 33.42 14.07 227.21 94.54 286.39 120.99 75.48 33.73 71.12 129.06-22.08 129.35-194.55.59-838.65 0-1026.36 1.05-92.36.52-102.06 6.92-228.25 59.5-126.2 52.58-181.78 78.11-227.09 94.92-76.57 28.39-139.25-51.19-63.82-118.47 141.52-126.22 137.96-153.04 222.97-186.07 90.78-35.28 171.68-67.41 223.65-94.88 53-28.02 15.88-55.32-38.8-34.3-54.7 21.04-112.72 16.94-147.56 16.88-48.7-.07-61.57-1.96-123.7 25.5-64.05 28.32-105.62 42.8-143.84 55.57-66.18 22.09-133.28-39.1-81.29-104.2 55.14-69.04 27.24-107.75 20.93-141.4-6.3-33.65 10.52-109.37 224-109.37Z" clip-rule="evenodd"/>
</svg>