<svg xmlns="http://www.w3.org/2000/svg" width="2000" height="2000" fill="none">
  <path stroke="white" stroke-linecap="round" stroke-linejoin="round" stroke-miterlimit="1.5" stroke-width="50" d="M1236.71 943.03c-31.55 25.24-237.67 184.03-276.58 213.47-38.9 29.45-96.74 27.34-182.97-41.01-86.24-68.36-79.93-63.77-140.92-115.49-61-51.72-96.75 19.79-106.21 60.81-9.46 41.01-41.3 267.85-263.95 398.55-117.78 69.15-171.4-10.61-177.7-74.66-5.69-57.81-13.57-129.65 94.88-237.14 117.78-116.72 214.53-202.7 314.43-291.82C593.93 769.9 681.46 797.9 707.75 820c26.3 22.08 91.49 65.2 152.48 3.15 61-62.04 39.12-84.34 177.72-72.56 179.62 15.27 419.59 27.34 551.04 34.7 131.45 7.37 95.7-102-17.87-108.3-113.58-6.32-401.19-39.53-786.6-18.94-43.26 2.31-130.4-96.75 84.13-138.81 249.16-48.86 569.97 33.65 664.61 58.89 94.64 25.24 181.93 34.7 298.65 38.9 116.73 4.22 104.11 152.5 3.16 150.39-100.95-2.1-75.93-.74-118.83 90.44-16.83 35.75-70.88 40.6-137.76 41-65.51.42-245.03-22.08-341.77 44.18Z" clip-rule="evenodd"/>
</svg>