<svg xmlns="http://www.w3.org/2000/svg" width="2000" height="2000" fill="none">
  <path stroke="white" stroke-width="50" d="M1848.3 1432.27c48.87 45.87 87.05 103.81-17.05 200.33-104.13 96.52-149.71 61.52-198.47 16.52-50.15-46.29-313.54-309.58-386.68-397.59-29.92-35.99-43.76-60.87-52.05-130.4-13.94-116.15-105.2-114.9-136.48-106.78-26.81 6.93-71.6 32.74-171.45-57.66-99.88-90.37-180.31-54.27-226.92-29.5-46.62 24.78-243.13 125.34-314.4 159.9-38.25 18.59-94.74 57.56-139.67-19.48-38.25-81.97-69.82-300.85-72.93-377.06-.64-16.84-5.25-51.34 50.52-79.97 115.1-75.79-11.27-178.67-11.27-178.67s-44.9-31.92-22.4-77.1c22.51-45.15 37.95-98.52 130.36-97.17 92.37 1.36 124.76 36.5 175.24 75.79 53.62 41.82 1163.94 883.32 1393.65 1098.84Z"/>
</svg>