<svg xmlns="http://www.w3.org/2000/svg" xml:space="preserve" fill-rule="evenodd" stroke-linecap="round" stroke-linejoin="round" stroke-miterlimit="1.5" clip-rule="evenodd" viewBox="0 0 2000 2000">
  <path fill="none" stroke="white" stroke-width="50" d="M415.21 533.05c164.2-42.17 559.13-136.59 751.19-179.23 42.05-9.34 268.12-65.17 387.72 100.57 63.2 87.56 186.91 270.3 245.34 372.54 35.37 61.88 139.43 269.76-42.4 491.76-57 69.59-166.84 164.27-239.07 224.44-67.43 56.17-127.61 108.16-252.02-34.52-119.3-136.83-271.29-302.21-340.28-397.86-49.6-68.75-76.34-154.12-1.31-230.07 96.37-97.55 121.71-110.7 135.92-152.41 8.51-24.97 12.69-76.2-41.99-93.03-66.57-20.49-287.65 38.4-398 72.59-69.33 21.49-199.83 57.96-158.3 173.89 49.13 137.12 5.32 199.67-36.91 230.52-52.56 38.39-149.34 40.34-196.36-24.42-34.24-47.17-62.64-94.47-80.66-134.96-24.94-56-32.97-164.34 28.02-229.1 100.19-106.4 170.18-173.01 239.11-190.71Z"/>
</svg>